HIERARCHY
ROOT Hips
{
	OFFSET -0.179506 -22.333345 2.821913
	CHANNELS 6 Xposition Yposition Zposition Zrotation Yrotation Xrotation 
	JOINT LeftUpLeg
	{
		OFFSET 6.951974 -9.140623 -0.681533
		CHANNELS 3 Zrotation Yrotation Xrotation
		JOINT LeftLeg
		{
			OFFSET 3.427654 -37.519855 -0.449580
			CHANNELS 3 Zrotation Yrotation Xrotation
			JOINT LeftFoot
			{
				OFFSET -1.359570 -39.796059 -4.369333
				CHANNELS 3 Zrotation Yrotation Xrotation
				JOINT LeftToe
				{
					OFFSET 2.635814 -5.579078 11.928840
					CHANNELS 3 Zrotation Yrotation Xrotation
					End Site
					{
						OFFSET 0.000000 0.000000 0.000000
					}
				}
			}
		}
	}
	JOINT RightUpLeg
	{
		OFFSET -6.767048 -9.052170 -0.431982
		CHANNELS 3 Zrotation Yrotation Xrotation
		JOINT RightLeg
		{
			OFFSET -3.829005 -38.256897 -0.885003
			CHANNELS 3 Zrotation Yrotation Xrotation
			JOINT RightFoot
			{
				OFFSET 1.577377 -39.841461 -4.231180
				CHANNELS 3 Zrotation Yrotation Xrotation
				JOINT RightToe
				{
					OFFSET -2.537174 -4.814398 12.334795
					CHANNELS 3 Zrotation Yrotation Xrotation
					End Site
					{
						OFFSET 0.000000 0.000000 0.000000
					}
				}
			}
		}
	}
	JOINT Spine
	{
		OFFSET -0.253288 10.896323 -2.669631
		CHANNELS 3 Zrotation Yrotation Xrotation
		JOINT Spine1
		{
			OFFSET 0.548704 13.518043 0.109247
			CHANNELS 3 Zrotation Yrotation Xrotation
			JOINT Spine2
			{
				OFFSET 0.145701 5.292222 2.542457
				CHANNELS 3 Zrotation Yrotation Xrotation
				JOINT Neck
				{
					OFFSET -0.277840 21.387037 -4.285703
					CHANNELS 3 Zrotation Yrotation Xrotation
					JOINT Head
					{
						OFFSET 0.515184 6.496960 5.134897
						CHANNELS 3 Zrotation Yrotation Xrotation
						End Site
						{
							OFFSET 0.000000 0.000000 0.000000
						}
					}
				}
				JOINT LeftShoulder
				{
					OFFSET 7.884473 12.174932 -3.408961
					CHANNELS 3 Zrotation Yrotation Xrotation
					JOINT LeftArm
					{
						OFFSET 9.097692 3.046888 -0.886815
						CHANNELS 3 Zrotation Yrotation Xrotation
						JOINT LeftForeArm
						{
							OFFSET 25.961220 -1.277207 -2.745643
							CHANNELS 3 Zrotation Yrotation Xrotation
							JOINT LeftHand
							{
								OFFSET 24.923361 0.898606 -0.117091
								CHANNELS 3 Zrotation Yrotation Xrotation
								End Site
								{
									OFFSET 0.000000 0.000000 0.000000
								}
							}
						}
					}
				}
				JOINT RightShoulder
				{
					OFFSET -8.175920 11.883285 -3.861528
					CHANNELS 3 Zrotation Yrotation Xrotation
					JOINT RightArm
					{
						OFFSET -9.601238 3.255117 -0.914307
						CHANNELS 3 Zrotation Yrotation Xrotation
						JOINT RightForeArm
						{
							OFFSET -25.374195 -1.332924 -2.140099
							CHANNELS 3 Zrotation Yrotation Xrotation
							JOINT RightHand
							{
								OFFSET -25.529810 0.777228 -0.555919
								CHANNELS 3 Zrotation Yrotation Xrotation
								End Site
								{
									OFFSET 0.000000 0.000000 0.000000
								}
							}
						}
					}
				}
			}
		}
	}
}
MOTION
Frames: 6
Frame Time: 0.033333
-14.560826 -25.614563 99.601120 172.107434 0.211646 86.333089 3.565120 2.177337 10.037201 -3.549671 -1.956731 -4.731520 4.262851 10.288928 -7.459720 nan nan nan -2.042147 -0.016316 8.632074 3.686263 2.010603 -4.098514 6.307963 -2.710051 -2.873347 nan nan nan -1.468318 0.496146 2.906853 1.302883 -2.816174 4.749032 1.438157 -0.469898 1.051217 -2.442763 3.115482 3.660076 1.798966 -0.332726 -2.543595 -23.871586 2.363379 5.050743 -62.225238 -6.507169 9.887377 9.866859 -21.592220 6.146394 -9.035389 -16.362573 -3.562516 24.161934 3.650766 4.788791 61.427302 6.332039 11.162481 -12.186337 16.770228 -6.238457 5.792706 10.469873 -10.847209 
-14.556120 -25.607428 99.600655 172.041416 0.200276 86.379220 3.521426 2.165147 9.999320 -3.516963 -1.889171 -4.729878 4.277785 10.333767 -7.446075 nan nan nan -2.068242 -0.000785 8.547825 3.694697 2.050577 -4.033365 6.362485 -2.711767 -2.890474 nan nan nan -1.477014 0.543003 2.797251 1.319309 -2.787577 4.823740 1.412506 -0.463823 1.034144 -2.449606 3.098202 3.620147 1.871691 -0.431668 -2.427783 -23.879452 2.336252 5.036974 -62.245821 -6.497140 9.946888 9.928746 -21.568059 6.081749 -9.180353 -16.427381 -3.414421 24.191157 3.677278 4.772399 61.422774 6.271869 11.181738 -12.227972 16.759804 -6.320658 5.874469 10.604900 -10.812338 
-14.551031 -25.609850 99.602234 171.995963 0.196816 86.426907 3.500744 2.159680 9.968737 -3.491190 -1.885876 -4.762440 4.233238 10.358639 -7.432090 nan nan nan -2.071628 0.055739 8.492595 3.688943 2.043720 -4.039449 6.373233 -2.708398 -2.839225 nan nan nan -1.483120 0.565014 2.709066 1.317661 -2.738095 4.889932 1.360965 -0.460951 1.048093 -2.547711 3.130289 3.409970 2.116216 -0.733438 -2.181203 -23.839022 2.338322 4.978204 -62.260702 -6.525637 10.026345 9.970917 -21.515611 5.990653 -9.300125 -16.476873 -3.280839 24.317258 3.668789 4.723070 61.339402 6.225892 11.208348 -12.245543 16.773807 -6.316365 5.946118 10.724794 -10.689876 
-14.549030 -25.607563 99.603737 172.009055 0.226065 86.371815 3.550140 2.205826 10.033386 -3.499024 -1.900677 -4.770105 4.183588 10.338138 -7.431572 nan nan nan -2.052940 0.048287 8.591846 3.697963 2.011887 -4.114870 6.345750 -2.660995 -2.784661 nan nan nan -1.438460 0.558412 2.808267 1.318094 -2.742255 4.860811 1.410090 -0.478656 1.037471 -2.505406 3.191482 3.483470 1.966385 -0.427268 -2.414210 -23.893598 2.304481 4.970732 -62.239578 -6.484518 10.000678 9.915875 -21.543763 6.026103 -9.186261 -16.394307 -3.335736 24.186683 3.671492 4.733751 61.407449 6.217365 11.210526 -12.240641 16.827817 -6.241927 5.904735 10.660940 -10.656016 
-14.554051 -25.621761 99.593834 172.104101 0.271640 86.374033 3.625110 2.282577 9.975011 -3.492810 -1.975007 -4.709744 4.150950 10.276787 -7.427619 nan nan nan -2.019792 0.028208 8.600653 3.739562 1.986196 -4.135441 6.296757 -2.668647 -2.738177 nan nan nan -1.392417 0.485851 2.858072 1.320987 -2.778091 4.820315 1.432492 -0.493940 1.018637 -2.462043 3.102862 3.580952 1.799061 -0.273271 -2.536677 -23.917308 2.305319 4.993859 -62.247794 -6.480953 10.014770 9.924967 -21.552500 6.064600 -9.079769 -16.319668 -3.374865 24.068293 3.687118 4.735461 61.492288 6.236509 11.222486 -12.224857 16.815428 -6.207840 5.841740 10.550272 -10.714229 
-14.552220 -25.628504 99.580917 172.120938 0.291364 86.401355 3.662130 2.279518 9.915499 -3.506296 -1.993359 -4.650605 4.151547 10.251698 -7.462239 nan nan nan -2.004699 0.024767 8.568929 3.766533 2.011347 -4.127710 6.271379 -2.668563 -2.764917 nan nan nan -1.374951 0.465418 2.827822 1.323675 -2.790281 4.822713 1.430187 -0.501135 1.013309 -2.437694 3.049489 3.644736 1.705515 -0.258654 -2.576065 -23.914787 2.327053 5.010384 -62.210901 -6.496671 10.005708 9.893095 -21.568655 6.077508 -9.037662 -16.349223 -3.395359 24.023631 3.695619 4.753082 61.525414 6.270410 11.221648 -12.196425 16.804811 -6.183808 5.813950 10.500038 -10.740004 
